{"glyphs":{":":{"x_min":0,"x_max":250,"ha":250,"o":"m 11 23 l 24 10 l 58 31 l 118 -12 l 139 -12 l 239 66 l 228 77 l 198 56 l 136 100 l 114 100 z m 11 297 l 24 284 l 58 305 l 118 262 l 139 262 l 239 340 l 228 351 l 198 330 l 136 374 l 114 374 z"},"$":{"x_min":0,"x_max":500,"ha":500,"o":"m 478 536 l 464 550 l 427 519 b 398 539 366 556 333 567 l 333 662 l 315 662 l 315 572 b 285 582 254 587 223 587 b 212 587 200 586 188 584 l 188 662 l 170 662 l 170 580 b 102 564 39 514 39 439 b 39 368 98 330 170 303 l 170 99 b 83 80 -24 23 -24 -65 b -24 -130 18 -170 79 -180 l 79 -168 b 37 -158 -6 -126 -6 -78 b -6 2 84 34 152 34 b 159 34 165 34 170 33 l 170 -124 l 188 -124 l 188 31 b 246 28 286 12 315 3 l 315 -124 l 333 -124 l 333 -3 l 355 -12 l 372 -12 b 438 55 477 122 477 186 b 477 271 412 311 333 339 l 333 491 l 335 491 b 345 476 357 459 369 441 z m 188 296 b 230 281 275 269 315 256 l 315 97 b 286 103 257 106 228 106 b 216 106 203 105 188 102 z m 333 250 b 401 229 453 202 453 154 b 453 119 431 92 412 66 b 386 77 359 87 333 92 z m 188 568 b 190 569 192 569 194 569 b 249 569 285 546 315 513 l 315 345 b 272 360 227 372 188 387 z m 170 394 b 118 414 81 440 81 486 b 81 530 129 558 170 565 z"},"?":{"x_min":0,"x_max":389,"ha":389,"o":"m 179 159 b 168 172 163 192 163 209 b 163 294 373 312 373 453 b 373 532 286 590 224 590 b 139 590 86 540 50 481 l 116 422 b 134 482 182 570 252 570 b 286 570 331 537 331 491 b 331 378 131 367 131 239 b 131 211 150 174 164 150 z m 65 9 l 99 30 l 159 -13 l 180 -13 l 280 65 l 269 76 l 239 55 l 177 99 l 155 99 l 52 22 z"},"<":{"x_min":0,"x_max":600,"ha":600,"o":"m 481 42 l 179 181 l 481 320 l 481 368 l 119 202 l 119 160 l 481 -6 z"},"'":{"x_min":0,"x_max":222,"ha":222,"o":"m 144 581 b 146 606 150 662 110 662 b 71 662 75 606 77 581 l 94 377 b 95 369 95 346 110 346 b 126 346 126 369 127 377 z"},"=":{"x_min":0,"x_max":600,"ha":600,"o":"m 481 274 l 119 274 l 119 228 l 481 228 z m 481 134 l 119 134 l 119 88 l 481 88 z"},"a":{"x_min":0,"x_max":444,"ha":444,"o":"m 176 42 b 141 52 99 75 99 117 b 99 152 121 172 148 186 l 175 200 l 211 164 l 223 177 l 120 279 b 157 281 193 292 225 310 l 269 276 l 269 101 z m 411 346 b 399 339 377 320 363 320 b 338 320 306 352 298 374 l 282 374 b 256 342 179 304 130 301 l 128 303 b 138 310 146 322 146 336 b 146 359 123 374 102 374 b 77 374 58 358 58 332 b 58 323 65 308 79 295 l 162 213 b 108 191 23 146 23 78 b 23 32 68 -1 104 -12 l 121 -12 l 269 79 b 269 38 277 26 292 13 l 320 -12 l 331 -12 l 422 54 l 412 66 l 388 50 l 345 86 l 345 280 l 420 332 z"},"L":{"x_min":0,"x_max":722,"ha":722,"o":"m 307 111 b 346 126 419 162 419 226 l 419 539 b 419 592 439 630 488 630 b 541 630 549 585 565 544 l 693 630 l 684 645 l 641 619 b 612 640 575 662 535 662 b 442 662 335 572 335 493 l 335 212 b 335 166 324 139 303 125 z m 374 662 b 341 638 316 625 277 625 b 249 625 233 635 215 644 b 197 653 178 662 141 662 b 76 662 12 617 12 545 b 12 511 44 482 76 477 l 85 495 b 54 499 30 518 30 547 b 30 575 48 590 78 590 b 98 590 116 584 137 577 b 158 570 182 563 214 563 b 284 563 331 594 385 652 z m 589 86 b 558 96 512 106 472 106 b 360 106 88 57 88 -102 b 88 -176 143 -218 213 -218 b 232 -218 244 -212 256 -212 l 257 -197 b 244 -198 231 -200 217 -200 b 158 -200 106 -168 106 -104 b 106 -3 258 42 336 42 b 464 42 544 -1 587 -22 l 604 -22 l 711 54 l 703 71 l 672 51 l 607 81 l 607 395 b 612 396 618 400 618 410 b 617 419 610 426 598 426 b 586 426 579 419 579 410 b 579 400 584 396 589 395 z m 306 552 b 264 537 196 508 196 431 l 196 370 l 157 370 b 133 370 95 350 95 300 b 95 284 98 270 100 255 l 121 255 b 121 290 141 301 173 301 l 196 301 l 196 137 b 196 113 179 98 156 80 l 158 60 b 234 97 280 129 280 184 l 280 491 b 280 517 293 527 309 534 z"},"3":{"x_min":0,"x_max":500,"ha":500,"o":"m 268 46 b 240 76 197 95 148 95 b 93 95 36 73 36 63 b 36 57 44 53 53 53 b 137 53 176 21 198 -12 l 216 -12 b 241 14 318 54 386 54 b 401 54 414 55 414 61 b 414 72 405 79 391 83 l 391 206 b 401 207 414 210 414 219 b 414 225 404 231 395 236 l 275 304 b 311 318 357 329 398 329 b 399 344 390 349 381 353 l 381 454 b 393 455 400 461 400 472 b 338 484 267 514 228 552 l 217 552 b 197 522 145 496 98 488 b 83 485 68 489 68 479 b 68 469 107 454 152 454 b 205 454 235 463 279 494 l 305 484 l 305 333 b 238 315 182 280 135 233 l 144 221 b 162 237 181 251 200 265 b 235 236 273 211 315 192 l 315 66 z"},";":{"x_min":0,"x_max":250,"ha":250,"o":"m 83 -153 b 125 -132 213 -79 213 6 b 213 60 178 83 158 87 l 149 87 l 42 14 l 53 0 l 86 22 b 117 16 141 -5 141 -42 b 141 -81 111 -118 74 -140 z m 11 297 l 24 284 l 58 305 l 118 262 l 139 262 l 239 340 l 228 351 l 198 330 l 136 374 l 114 374 z"},"J":{"x_min":0,"x_max":556,"ha":556,"o":"m 503 662 b 426 631 397 602 397 523 l 397 65 b 397 -61 342 -112 212 -112 b 140 -112 52 -71 52 8 b 52 20 54 27 62 27 b 78 27 84 0 116 0 b 146 0 169 23 169 57 b 169 91 146 114 116 114 b 67 114 34 73 34 28 b 34 -87 129 -130 230 -130 b 362 -130 481 -79 481 64 l 481 584 b 481 618 488 638 509 646 z m 208 -18 b 266 2 322 28 322 80 l 322 487 b 322 530 341 546 361 558 l 354 567 b 308 556 238 532 238 448 l 239 337 l 197 337 b 144 337 130 296 130 220 l 148 220 b 157 263 172 269 218 269 l 238 269 l 238 45 b 238 22 228 6 201 -2 z m 378 661 b 354 647 320 634 292 634 b 273 634 250 641 226 648 b 203 655 178 662 154 662 b 82 662 8 612 8 537 b 8 474 76 464 125 464 l 125 482 b 83 482 26 482 26 537 b 26 567 45 594 75 594 b 99 594 119 587 143 579 b 167 571 195 562 233 562 b 298 562 343 607 387 649 z"},"V":{"x_min":0,"x_max":722,"ha":722,"o":"m 27 511 b 39 555 71 584 124 584 b 168 584 198 554 198 506 l 198 373 l 151 373 b 113 373 78 349 78 289 b 78 272 80 253 85 238 l 110 238 b 110 273 127 301 163 301 l 198 301 l 198 102 b 128 84 67 25 67 -49 b 67 -122 118 -164 173 -183 l 183 -170 b 128 -151 85 -107 85 -46 b 85 19 135 46 194 46 b 278 46 331 -7 368 -22 l 398 -22 b 434 6 532 76 678 74 l 678 92 l 643 112 l 643 542 l 708 587 l 699 602 b 692 597 679 596 673 596 b 632 596 596 662 572 662 b 559 662 549 658 531 648 l 367 559 l 367 662 l 349 662 l 349 550 l 282 515 l 282 550 b 282 584 252 662 157 662 b 68 662 22 580 9 520 z m 349 93 b 325 97 304 104 282 109 l 282 493 l 349 528 z m 367 421 b 401 411 433 405 468 405 b 499 405 529 410 559 420 l 559 227 b 528 237 499 245 468 245 b 433 245 400 243 367 229 z m 367 540 l 483 601 l 559 552 l 559 440 b 527 427 494 423 461 423 b 436 423 390 432 367 444 z m 367 207 b 392 220 422 227 450 227 b 488 227 523 220 559 205 l 559 79 b 523 68 490 54 457 38 b 429 57 399 74 367 88 z"},"\"":{"x_min":0,"x_max":333,"ha":333,"o":"m 272 581 b 274 606 278 662 238 662 b 199 662 203 606 205 581 l 222 377 b 223 369 223 346 238 346 b 254 346 254 369 255 377 z m 128 581 b 130 606 134 662 95 662 b 55 662 59 606 61 581 l 78 377 b 79 369 79 346 95 346 b 110 346 110 369 111 377 z"},"7":{"x_min":0,"x_max":500,"ha":500,"o":"m 440 552 b 418 518 383 496 342 496 b 295 496 214 522 167 552 l 152 552 l 69 420 l 84 414 l 123 473 b 158 457 213 440 251 440 b 315 440 366 458 415 497 l 417 495 b 357 415 125 188 125 80 b 125 45 156 6 180 -12 l 198 -12 l 313 69 l 302 86 l 250 50 b 229 62 221 88 221 111 b 221 191 409 438 456 552 z"},"S":{"x_min":0,"x_max":833,"ha":833,"o":"m 396 122 b 373 124 348 130 325 130 b 182 130 -20 34 -20 -104 b -20 -153 10 -175 57 -175 b 178 -175 293 -41 361 47 b 418 30 474 4 514 -24 l 544 -24 b 576 16 789 112 789 231 b 789 318 754 365 631 399 l 609 405 b 658 464 714 522 785 556 l 776 569 b 697 538 640 471 585 410 l 453 439 b 366 458 264 496 264 548 b 264 606 326 624 378 624 b 445 624 500 577 539 515 l 702 628 l 690 642 l 624 598 b 568 641 497 662 426 662 b 347 662 218 614 218 518 b 218 442 266 396 430 360 l 535 337 l 506 295 l 361 327 b 252 351 181 387 181 437 b 181 446 184 456 186 465 l 171 470 b 154 452 143 420 143 397 b 143 315 230 274 320 253 l 462 220 z m 342 53 b 279 -30 165 -157 52 -157 b 23 -157 -2 -142 -2 -110 b -2 -3 151 68 242 68 b 276 68 309 61 342 53 z m 552 332 l 598 320 b 670 301 743 276 743 201 b 743 130 643 72 592 36 b 537 73 481 107 415 118 l 481 216 l 534 202 b 590 187 647 171 647 145 b 647 134 637 120 629 113 l 641 104 b 667 122 693 148 693 182 b 693 241 640 261 568 281 l 526 293 z"},"}":{"x_min":0,"x_max":333,"ha":333,"o":"m 207 523 b 207 642 156 662 80 662 l 80 650 b 115 635 131 597 131 528 l 131 361 b 131 291 142 251 227 234 l 227 232 b 142 215 131 175 131 105 l 131 -62 b 131 -131 115 -169 80 -184 l 80 -196 b 156 -196 207 -176 207 -57 l 207 120 b 207 184 219 215 276 233 b 219 251 207 282 207 346 z"},"Z":{"x_min":0,"x_max":667,"ha":667,"o":"m 30 -22 b 120 2 211 38 307 38 b 391 38 479 17 523 -22 l 537 -22 l 633 91 l 620 104 l 590 72 b 537 96 478 110 419 110 b 299 110 203 65 97 12 l 97 25 b 214 96 275 150 346 266 l 363 294 l 517 294 l 587 404 l 573 417 l 539 366 l 400 366 l 417 400 b 466 498 533 590 631 644 l 625 662 b 540 626 446 599 351 599 b 270 599 208 626 156 662 l 63 547 l 78 538 l 109 572 b 154 550 202 537 253 537 b 363 537 441 571 540 617 l 547 606 b 456 553 368 488 314 398 l 295 366 l 124 366 l 60 251 l 80 251 l 106 294 l 255 294 l 221 228 b 174 136 110 50 30 -8 z"},"x":{"x_min":0,"x_max":444,"ha":444,"o":"m 157 82 b 143 93 127 102 109 102 b 64 102 36 68 17 31 l 28 23 b 36 28 51 30 56 30 b 80 30 100 23 115 0 l 132 0 l 207 140 b 241 70 276 10 313 -12 l 326 -12 l 411 58 l 399 71 b 389 60 375 50 360 50 b 338 50 278 150 247 222 l 281 288 b 291 276 315 264 338 264 b 374 264 400 303 407 337 l 395 344 b 388 339 378 336 368 336 b 345 336 324 374 313 374 l 306 374 l 237 242 b 222 272 179 374 138 374 b 114 374 69 332 46 313 l 57 298 b 65 307 73 312 87 312 b 128 312 179 206 198 164 z"},")":{"x_min":0,"x_max":333,"ha":333,"o":"m 39 -196 b 198 -106 279 61 279 233 b 279 405 198 572 39 662 l 39 634 b 175 541 201 399 201 233 b 201 67 175 -75 39 -168 z"},"&":{"x_min":0,"x_max":778,"ha":778,"o":"m 737 100 b 703 74 664 60 623 60 b 546 60 513 104 478 166 l 578 299 b 601 279 623 267 654 267 b 699 267 730 304 747 341 l 734 353 b 726 348 714 339 700 339 b 684 339 646 370 623 398 b 575 323 522 252 468 181 b 435 243 397 303 359 362 b 415 406 484 460 484 538 b 484 608 430 644 392 662 l 376 662 l 118 454 l 118 451 b 180 425 241 388 278 330 b 178 287 29 229 29 98 b 29 19 105 -22 176 -22 b 272 -22 352 29 418 94 b 465 28 508 -22 584 -22 b 662 -22 720 28 747 84 z m 288 318 b 330 250 368 179 410 110 b 363 67 300 16 232 16 b 175 16 125 53 125 113 b 125 224 204 266 288 318 z m 317 590 b 364 581 412 542 412 491 b 412 450 383 404 351 380 b 313 434 264 483 196 494 z"},"_":{"x_min":0,"x_max":500,"ha":500,"o":"m 500 -125 l 500 -75 l 0 -75 l 0 -125 z"},"v":{"x_min":0,"x_max":444,"ha":444,"o":"m 372 294 l 426 335 l 411 352 b 400 339 393 332 381 332 b 369 332 328 358 310 374 l 286 374 l 143 302 b 111 347 103 369 103 401 b 103 489 180 538 250 557 l 249 576 b 157 558 25 471 25 365 b 25 347 30 330 37 315 b 45 301 56 288 69 276 l 69 88 l 6 45 l 18 32 b 28 40 42 45 53 45 b 84 45 117 11 144 -12 l 163 -12 b 202 33 271 51 392 58 l 392 74 l 372 83 z m 145 281 l 224 320 l 296 286 l 296 67 b 270 64 250 57 226 49 l 145 94 z"},"O":{"x_min":0,"x_max":778,"ha":778,"o":"m 296 648 b 161 587 33 459 33 302 b 33 107 206 -22 392 -22 b 597 -22 740 139 740 342 b 744 522 652 590 546 662 l 530 662 l 446 618 l 446 662 l 428 662 l 428 610 l 213 503 l 219 487 l 285 519 l 285 148 b 285 112 276 90 250 72 l 269 59 b 316 72 369 108 369 164 l 369 560 l 428 589 l 428 -4 b 228 -4 139 96 139 288 b 139 427 158 567 302 631 z m 446 400 b 482 385 518 381 555 381 b 584 381 624 391 646 403 b 652 375 658 344 658 315 b 658 278 652 239 643 203 b 611 219 576 230 536 230 b 505 230 476 224 446 214 z m 446 194 b 475 206 506 212 536 212 b 573 212 609 202 637 184 b 618 94 543 11 446 -4 z m 447 597 l 460 603 b 530 582 606 513 642 419 b 614 408 581 399 548 399 b 514 399 478 406 446 419 z"},"(":{"x_min":0,"x_max":333,"ha":333,"o":"m 294 662 b 135 572 54 405 54 233 b 54 61 135 -106 294 -196 l 294 -168 b 158 -75 132 67 132 233 b 132 399 158 541 294 634 z"},"C":{"x_min":0,"x_max":667,"ha":667,"o":"m 279 640 b 136 587 35 445 35 291 b 35 95 175 -22 367 -22 b 485 -22 575 29 646 124 l 635 135 b 598 101 559 72 508 55 l 508 558 b 561 569 610 606 626 644 l 621 654 b 595 639 567 630 534 630 b 496 630 467 653 454 662 l 443 662 l 173 456 l 173 435 l 273 507 l 273 176 b 273 156 268 134 252 120 l 256 106 b 316 118 357 164 357 228 l 357 574 l 388 595 b 417 570 452 558 490 558 l 490 49 b 466 43 441 40 408 40 b 216 40 119 178 119 357 b 119 472 178 577 282 628 z"},"W":{"x_min":0,"x_max":944,"ha":944,"o":"m 637 535 l 637 57 b 615 69 590 80 571 80 l 571 493 z m 487 406 b 466 401 445 398 424 398 b 405 398 386 405 371 408 l 371 553 l 424 590 l 467 566 b 482 558 487 546 487 516 z m 371 389 b 386 386 405 380 424 380 b 445 380 466 382 487 387 l 487 234 b 466 239 445 242 424 242 b 405 242 386 235 371 232 z m 353 74 b 329 80 308 85 287 88 l 287 495 l 353 542 z m 371 213 b 386 217 405 224 424 224 b 445 224 466 221 487 215 l 487 81 b 454 72 430 61 406 45 b 395 54 380 64 371 69 z m 203 86 b 114 77 22 18 22 -79 b 22 -151 72 -197 134 -204 l 143 -190 b 93 -182 40 -145 40 -92 b 40 -16 111 14 177 14 b 266 14 290 -22 324 -22 b 360 -22 368 31 430 31 b 484 31 534 -22 570 -22 b 604 -22 676 58 809 58 b 834 58 867 53 884 44 l 884 60 l 855 93 l 855 553 l 933 603 l 920 618 l 889 598 l 796 662 l 784 662 l 655 572 l 655 662 l 637 662 l 637 559 l 571 514 l 571 549 b 571 596 566 609 547 626 l 506 662 l 489 662 l 371 576 l 371 662 l 353 662 l 353 566 l 287 522 b 287 595 243 662 163 662 b 84 662 21 592 21 515 l 39 515 b 39 556 87 580 128 580 b 172 580 203 562 203 522 l 203 373 l 156 373 b 118 373 83 349 83 289 b 83 272 85 253 90 238 l 110 238 b 110 276 132 301 168 301 l 203 301 z m 655 387 b 670 384 689 378 708 378 b 729 378 750 380 771 385 l 771 234 b 750 239 729 242 708 242 b 689 242 670 235 655 232 z m 771 76 b 737 74 692 59 655 42 l 655 211 b 670 214 689 221 708 221 b 729 221 750 218 771 213 z m 655 549 l 713 587 l 771 551 l 771 404 b 750 399 729 396 708 396 b 689 396 670 403 655 406 z"},"A":{"x_min":0,"x_max":833,"ha":833,"o":"m 596 201 b 620 141 650 21 697 -22 l 716 -22 b 721 -18 733 -7 740 -2 l 810 49 l 800 61 l 772 45 b 761 47 738 73 725 102 l 545 540 b 529 579 515 618 508 662 l 495 662 l 479 631 b 454 650 426 662 394 662 b 323 662 264 607 238 545 l 251 538 b 284 567 310 584 355 584 b 384 584 415 576 438 558 l 399 476 b 380 488 359 492 337 492 b 272 492 234 448 220 389 l 235 383 b 248 407 275 424 302 424 b 328 424 349 412 362 391 l 224 86 b 146 84 23 14 23 -87 b 23 -197 138 -218 225 -218 b 252 -218 279 -213 306 -211 l 300 -191 b 276 -196 251 -200 226 -200 b 150 -200 41 -186 41 -87 b 41 -15 116 22 180 22 b 249 22 297 -5 320 -22 l 343 -22 l 478 71 l 466 82 l 409 46 b 374 76 310 86 247 86 l 300 201 z m 564 273 l 330 273 l 451 544 z"},"f":{"x_min":0,"x_max":333,"ha":333,"o":"m 67 374 l 42 316 l 53 311 b 61 320 73 322 85 322 l 120 322 l 120 79 l 41 25 l 52 14 b 62 21 87 36 100 36 b 117 36 155 6 175 -12 l 191 -12 l 294 63 l 284 75 l 248 51 l 196 88 l 196 322 l 267 322 l 294 382 l 281 390 b 275 379 264 374 252 374 l 196 374 l 196 556 l 200 558 b 215 538 237 529 262 529 b 296 529 320 556 326 597 l 316 602 b 312 597 301 591 289 591 b 275 591 257 610 247 627 l 233 627 b 203 587 152 564 109 549 b 114 511 120 471 120 433 l 120 374 z"},"Q":{"x_min":0,"x_max":778,"ha":778,"o":"m 369 560 l 428 589 l 428 73 b 421 75 412 76 403 76 b 370 76 343 61 319 39 l 326 25 b 341 32 352 38 362 38 b 380 38 396 15 406 -2 b 221 4 139 104 139 288 b 139 427 158 567 302 631 l 296 648 b 161 587 33 459 33 302 b 33 107 206 -22 392 -22 b 400 -22 408 -22 417 -21 b 444 -69 488 -136 544 -136 b 592 -136 626 -117 660 -96 l 648 -79 b 635 -85 623 -88 609 -88 b 572 -88 547 -43 517 0 b 652 50 740 183 740 342 b 744 522 652 590 546 662 l 530 662 l 446 618 l 446 662 l 428 662 l 428 610 l 213 503 l 219 487 l 285 519 l 285 148 b 285 112 276 90 250 72 l 269 59 b 316 72 369 108 369 164 z m 446 400 b 482 385 518 381 555 381 b 584 381 624 391 646 403 b 652 375 658 344 658 315 b 658 278 652 239 643 203 b 611 219 576 230 536 230 b 505 230 476 224 446 214 z m 446 194 b 475 206 506 212 536 212 b 573 212 609 202 637 184 b 622 113 572 47 505 15 b 488 37 470 56 446 67 z m 447 597 l 460 603 b 530 582 606 513 642 419 b 614 408 581 399 548 399 b 514 399 478 406 446 419 z"},"w":{"x_min":0,"x_max":667,"ha":667,"o":"m 633 344 b 622 334 602 320 592 320 b 583 321 551 352 529 374 l 512 374 l 369 296 l 369 312 b 369 331 341 355 319 374 l 305 374 l 155 296 b 129 328 117 355 117 397 b 117 481 199 535 272 549 l 272 567 b 182 557 41 470 41 365 b 41 345 45 329 51 314 b 58 299 68 286 81 273 l 81 83 l 21 35 l 34 24 b 43 31 61 47 73 47 b 116 47 136 -12 158 -12 b 172 -12 205 8 220 16 l 301 58 l 362 -12 l 378 -12 b 396 8 461 49 580 51 b 592 51 606 54 606 62 b 606 71 592 78 581 79 l 581 285 l 646 329 z m 233 44 l 157 100 l 157 278 l 242 317 l 293 278 l 293 76 z m 505 63 l 442 45 b 387 78 369 99 369 126 l 369 275 l 450 318 l 505 281 z"},"-":{"x_min":0,"x_max":333,"ha":333,"o":"m 74 150 l 230 150 l 293 225 l 279 235 l 259 212 l 102 212 l 37 132 l 50 124 z"},"E":{"x_min":0,"x_max":722,"ha":722,"o":"m 355 117 b 250 117 79 50 79 -74 b 79 -172 175 -218 262 -218 b 311 -218 360 -210 411 -195 l 397 -179 b 354 -193 306 -200 258 -200 b 186 -200 97 -161 97 -77 b 97 18 209 53 287 53 b 432 53 522 -16 531 -22 l 557 -22 l 671 61 l 659 75 l 623 50 b 595 68 566 84 535 95 l 535 306 l 656 385 l 642 402 l 600 373 b 570 407 538 425 492 425 b 448 425 408 403 373 377 l 373 498 b 373 578 424 598 459 598 b 522 598 542 575 587 536 l 707 624 l 696 637 l 663 616 b 620 638 585 662 535 662 b 441 662 356 597 355 498 z m 373 355 b 387 364 402 371 418 371 b 458 371 515 340 517 286 l 517 102 b 468 112 420 117 373 117 z m 374 661 b 353 644 330 632 303 632 b 290 632 266 639 239 646 b 211 654 181 662 154 662 b 97 662 11 615 11 549 b 11 509 27 489 57 464 l 67 477 b 46 492 29 514 29 541 b 29 568 50 588 76 588 b 95 588 118 581 141 574 b 165 567 189 560 212 560 b 292 560 340 586 384 654 z m 315 542 b 273 522 205 495 205 441 l 206 370 l 164 370 b 111 370 97 319 97 253 l 115 253 b 124 286 139 292 185 292 l 205 292 l 205 167 b 205 143 188 128 175 123 l 184 104 b 243 127 289 159 289 214 l 289 470 b 289 503 310 525 322 530 z"},"s":{"x_min":0,"x_max":444,"ha":444,"o":"m 384 374 b 361 360 338 347 307 347 b 278 347 251 363 229 374 l 214 374 b 175 345 126 324 78 321 b 57 319 41 319 41 310 b 41 302 54 298 68 287 l 68 191 l 56 186 b 47 182 39 173 39 168 b 39 161 48 157 56 157 l 182 157 l 35 0 l 48 -9 b 69 5 94 20 120 20 b 152 20 192 6 219 -12 l 235 -12 b 263 20 325 45 389 50 b 400 51 406 51 406 57 b 406 64 396 75 385 79 l 385 190 b 397 193 408 202 408 207 b 408 215 404 218 394 218 l 259 218 l 396 365 z m 309 48 l 294 48 b 275 66 238 78 207 78 b 167 78 124 56 103 43 l 101 45 l 220 174 l 309 174 z m 144 206 l 144 315 l 161 323 b 184 301 196 290 228 290 b 266 290 301 308 332 325 l 334 323 l 226 206 z"},">":{"x_min":0,"x_max":600,"ha":600,"o":"m 119 320 l 421 181 l 119 42 l 119 -6 l 481 160 l 481 202 l 119 368 z"},"l":{"x_min":0,"x_max":278,"ha":278,"o":"m 88 586 b 93 566 97 535 97 510 l 97 69 l 24 31 l 38 17 b 49 24 64 35 78 35 b 97 35 124 15 147 -12 l 166 -12 l 255 56 l 244 68 l 218 51 l 173 81 l 173 477 b 173 523 183 583 216 619 l 205 634 b 174 607 150 576 125 546 l 102 595 z"},"8":{"x_min":0,"x_max":500,"ha":500,"o":"m 81 88 l 27 45 l 38 38 b 45 43 59 52 68 52 b 97 52 171 15 198 -12 l 210 -12 b 247 21 329 55 426 60 l 426 72 l 414 83 l 414 211 b 423 213 433 216 433 223 b 433 232 421 238 409 243 l 286 300 b 329 316 377 334 419 334 l 419 346 l 403 356 l 403 458 l 449 495 l 449 510 b 440 506 429 499 413 499 b 399 499 329 543 300 552 l 284 552 b 229 513 146 489 76 478 l 76 466 l 95 456 l 95 340 l 74 331 l 74 321 l 194 265 b 172 249 101 222 63 222 l 63 210 l 81 201 z m 157 95 l 157 229 l 215 256 l 343 199 l 343 65 l 275 43 z m 327 331 l 271 308 l 171 356 l 171 481 l 233 505 l 327 461 z"},"\\":{"x_min":0,"x_max":278,"ha":278,"o":"m -66 662 l 298 -22 l 344 -22 l -20 662 z"},"e":{"x_min":0,"x_max":333,"ha":333,"o":"m 59 72 l 1 38 l 15 27 b 22 31 40 42 53 42 b 79 42 118 5 141 -12 l 157 -12 l 312 75 l 298 89 l 219 45 l 135 88 l 135 138 l 315 241 l 315 256 l 224 374 l 213 374 b 181 349 92 314 35 314 b 35 304 46 291 59 285 z m 135 159 l 135 317 b 145 320 159 326 169 330 l 248 225 z"},"b":{"x_min":0,"x_max":444,"ha":444,"o":"m 53 597 b 62 578 68 559 68 538 l 68 72 l 6 27 l 20 15 b 29 25 41 34 54 34 b 72 34 108 12 141 -12 b 207 19 268 52 344 52 b 361 52 378 50 395 50 l 395 70 l 373 86 l 373 292 l 438 334 l 425 348 b 413 340 395 324 382 324 b 368 324 327 357 302 375 l 288 375 l 144 285 l 144 514 b 144 566 156 598 184 622 l 171 634 b 146 607 118 582 96 552 b 87 572 80 590 64 605 z m 144 262 l 230 317 l 297 278 l 297 70 b 269 62 248 56 215 42 b 192 61 171 73 144 86 z"},"%":{"x_min":0,"x_max":833,"ha":833,"o":"m 39 289 l -14 252 l -8 237 b 3 246 16 256 28 256 b 47 256 88 234 120 214 l 135 214 b 178 245 258 278 338 280 b 338 296 327 308 315 314 l 315 467 l 371 510 l 362 523 b 352 516 337 503 321 503 b 306 503 252 543 236 552 l 213 552 b 165 518 79 490 18 490 b 18 471 29 466 39 462 z m 107 486 l 174 503 l 247 460 l 247 287 l 184 264 l 107 305 z m 513 63 l 460 26 l 466 11 b 477 20 490 30 502 30 b 521 30 562 8 594 -12 l 609 -12 b 652 19 732 52 812 54 b 812 70 801 82 789 88 l 789 241 l 845 284 l 836 297 b 826 290 811 277 795 277 b 780 277 726 317 710 326 l 687 326 b 639 292 553 264 492 264 b 492 245 503 240 513 236 z m 581 259 l 648 276 l 721 233 l 721 60 l 658 37 l 581 78 z m 590 552 l 191 -12 l 235 -12 l 634 552 z"},"m":{"x_min":0,"x_max":667,"ha":667,"o":"m 155 251 l 250 315 b 281 301 296 278 296 248 l 296 66 l 260 41 b 282 25 314 9 339 -12 l 349 -12 l 451 61 l 441 73 l 407 54 l 372 79 l 372 247 l 463 312 l 513 282 l 513 61 b 513 23 545 3 563 -12 l 574 -12 l 667 53 l 653 69 l 626 49 b 606 63 589 73 589 103 l 589 293 l 654 338 l 643 351 b 625 338 607 329 593 329 b 575 329 545 354 533 374 l 519 374 l 374 271 b 373 311 367 326 354 339 l 319 374 l 303 374 l 155 275 b 155 304 156 324 136 346 l 104 374 l 87 374 l 8 317 l 15 301 b 23 304 30 310 37 310 b 51 310 79 289 79 257 l 79 80 l 6 31 l 16 17 b 31 24 49 41 59 41 b 69 41 107 7 125 -12 l 134 -12 l 237 56 l 225 70 l 195 55 l 155 82 z"},"#":{"x_min":0,"x_max":500,"ha":500,"o":"m 416 211 l 338 211 l 354 327 l 436 327 l 439 367 l 359 367 l 384 540 l 341 540 l 317 367 l 212 367 l 237 540 l 193 540 l 170 367 l 82 367 l 80 327 l 164 327 l 148 211 l 60 211 l 57 171 l 143 171 l 118 0 l 161 0 l 185 171 l 290 171 l 265 0 l 308 0 l 332 171 l 414 171 z m 311 327 l 295 211 l 190 211 l 207 327 z"},",":{"x_min":0,"x_max":250,"ha":250,"o":"m 80 -153 b 122 -132 210 -79 210 6 b 210 60 175 83 155 87 l 146 87 l 39 14 l 50 0 l 83 22 b 114 16 138 -5 138 -42 b 138 -81 108 -118 71 -140 z"},"n":{"x_min":0,"x_max":500,"ha":500,"o":"m 482 51 l 471 68 l 448 53 b 419 65 403 87 403 124 l 403 281 l 478 333 l 466 348 b 452 336 436 323 418 323 b 401 323 371 353 356 374 l 339 374 l 171 254 b 170 313 167 328 160 335 l 125 374 l 106 374 l 14 307 l 29 293 l 53 313 l 95 274 l 95 74 l 18 18 l 34 5 b 46 22 65 32 77 32 b 100 32 125 4 142 -12 l 156 -12 l 253 58 l 241 70 l 215 54 l 171 82 l 171 227 l 283 313 l 327 277 l 327 70 b 327 28 352 10 380 -12 l 395 -12 z"},"h":{"x_min":0,"x_max":444,"ha":444,"o":"m 143 251 l 244 312 l 294 282 l 294 52 b 294 33 290 23 284 12 b 278 1 275 -11 275 -30 b 275 -51 278 -72 287 -92 b 299 -119 308 -133 308 -158 b 308 -176 302 -195 280 -207 l 294 -220 b 330 -214 370 -187 370 -144 b 370 -114 350 -97 333 -76 b 319 -59 297 -43 297 -13 b 297 15 333 35 355 35 b 370 35 387 32 398 28 l 403 41 l 370 67 l 370 282 l 432 321 l 420 336 b 411 330 396 323 385 323 b 374 323 330 364 314 374 l 302 374 l 143 271 l 143 510 b 143 564 153 583 181 621 l 169 634 b 141 611 114 583 97 554 b 86 574 80 596 66 613 l 53 603 b 63 566 67 535 67 510 l 67 81 l 2 42 l 15 28 b 23 35 29 40 38 40 b 57 40 89 7 104 -12 l 117 -12 l 221 61 l 211 75 l 180 54 l 143 82 z"},"z":{"x_min":0,"x_max":389,"ha":389,"o":"m 71 140 b 78 155 101 162 121 162 l 166 162 l 12 0 l 25 -12 b 69 20 88 30 144 30 b 176 30 202 20 223 9 b 245 -1 263 -12 277 -12 b 288 -12 294 -6 301 0 b 324 20 348 53 368 64 l 358 75 l 333 58 b 304 81 263 92 226 92 b 182 92 142 77 103 64 l 101 66 l 190 162 l 296 162 l 339 219 l 328 230 b 322 222 309 208 284 208 l 233 208 l 369 355 l 360 365 b 324 338 301 326 255 326 b 210 326 157 352 128 374 l 113 374 b 88 346 61 316 37 299 l 50 288 b 59 296 68 300 75 300 b 98 300 111 264 169 264 b 210 264 251 275 278 285 l 280 283 l 208 208 l 104 208 l 57 154 z"},"B":{"x_min":0,"x_max":778,"ha":778,"o":"m 470 50 b 422 70 370 82 318 82 b 231 82 44 27 44 -86 b 44 -188 136 -218 223 -218 b 258 -218 301 -211 328 -206 l 318 -187 b 285 -195 252 -200 218 -200 b 142 -200 62 -174 62 -87 b 62 -8 172 20 234 20 b 310 20 356 2 409 -22 l 439 -22 b 476 0 524 49 649 49 b 676 49 702 48 728 45 l 735 58 b 721 63 709 71 709 88 l 709 265 b 709 324 632 346 573 355 l 573 357 b 643 397 711 454 711 542 b 711 610 658 662 591 662 b 494 662 333 526 333 477 l 333 205 b 333 173 329 139 294 127 l 294 106 b 344 126 417 152 417 236 l 417 510 b 417 582 519 630 556 630 b 617 630 619 580 619 532 b 619 435 593 361 488 340 l 488 477 l 470 477 z m 625 144 b 600 151 575 158 549 158 b 528 158 508 152 488 146 l 488 236 b 510 224 534 219 559 219 b 581 219 604 225 625 234 z m 625 67 b 583 65 541 51 502 36 l 488 42 l 488 127 b 503 132 530 140 546 140 b 574 140 600 136 625 123 z m 488 322 l 567 346 b 588 337 625 317 625 288 l 625 252 b 605 244 584 237 563 237 b 536 237 512 242 488 253 z m 400 644 b 380 629 361 617 334 617 b 318 617 292 628 262 640 b 233 652 198 662 163 662 b 96 662 17 611 17 537 b 17 512 25 491 41 472 l 53 481 b 43 494 35 511 35 528 b 35 570 64 600 105 600 b 130 600 161 585 190 575 b 219 565 247 555 267 555 b 325 555 376 592 413 634 z m 197 145 b 197 121 180 106 164 101 l 162 78 b 222 100 281 137 281 192 l 281 448 b 281 491 299 506 322 515 l 316 529 b 264 515 197 477 197 419 l 197 370 b 110 360 89 329 89 253 l 107 253 b 116 296 131 302 177 302 l 197 302 z"},"K":{"x_min":0,"x_max":778,"ha":778,"o":"m 458 62 b 409 79 357 88 286 88 b 213 88 60 31 60 -85 b 60 -202 166 -218 257 -218 b 279 -218 302 -214 331 -211 l 319 -192 b 296 -198 271 -200 246 -200 b 174 -200 78 -186 78 -93 b 78 -10 154 26 228 26 b 315 26 376 -22 406 -22 b 416 -22 424 -18 431 -13 l 544 68 l 530 82 l 476 45 l 476 188 l 529 221 b 580 146 614 46 641 -22 l 660 -22 l 764 56 l 753 68 b 742 58 731 50 719 50 b 704 50 695 72 685 95 b 659 155 632 217 583 262 l 709 351 l 576 479 l 476 412 l 476 515 l 458 515 l 458 399 l 400 359 l 400 538 b 400 602 466 624 492 624 b 536 624 572 594 583 544 l 718 639 l 707 652 l 657 622 b 624 643 592 662 546 662 b 474 662 316 574 316 484 l 316 189 b 316 163 299 147 275 134 l 281 118 b 370 145 400 170 400 264 l 400 336 l 458 375 z m 476 389 l 524 421 l 626 316 l 476 211 z m 375 663 b 351 644 323 631 292 631 b 277 631 256 639 234 647 b 211 655 187 662 162 662 b 103 662 15 626 15 555 b 15 503 46 474 95 465 l 95 481 b 62 489 33 511 33 548 b 33 575 56 590 81 590 b 102 590 123 584 145 577 b 168 570 192 563 218 563 b 288 563 336 603 385 648 z m 286 539 b 244 524 176 490 176 418 l 177 374 l 146 374 b 116 374 76 351 76 271 l 93 271 b 99 289 110 301 149 301 l 176 301 l 176 144 b 176 120 159 105 146 100 l 156 86 b 214 104 260 136 260 191 l 260 478 b 260 504 273 514 289 521 z"},"R":{"x_min":0,"x_max":778,"ha":778,"o":"m 217 97 b 120 97 22 29 22 -74 b 22 -190 107 -218 208 -218 b 234 -218 259 -215 285 -209 l 285 -190 b 264 -194 244 -200 223 -200 b 147 -200 40 -185 40 -87 b 40 8 122 35 203 35 b 276 35 330 4 360 -22 l 383 -22 l 514 67 l 501 80 l 434 38 b 422 49 409 59 394 69 l 394 285 l 475 324 b 527 288 560 149 580 60 b 590 16 619 -16 634 -22 l 654 -22 l 762 52 l 750 66 l 713 42 b 626 86 661 304 522 354 b 595 390 672 435 672 527 b 672 596 624 644 600 662 l 591 662 l 394 558 l 394 630 b 399 632 405 636 405 646 b 404 655 397 662 385 662 b 373 662 366 655 366 646 b 366 636 371 632 376 630 l 376 548 l 301 510 l 301 548 b 301 614 248 662 170 662 b 92 662 41 592 34 519 l 52 516 b 61 556 98 580 139 580 b 196 580 217 544 217 494 l 217 373 b 142 372 98 342 98 296 b 98 276 101 263 102 252 l 123 252 b 125 278 144 301 180 301 l 217 301 z m 376 527 l 376 76 b 350 88 322 93 301 93 l 301 491 z m 394 537 l 490 588 b 504 595 515 600 520 600 b 529 600 590 556 590 481 b 590 434 573 395 501 359 l 394 306 z"},"T":{"x_min":0,"x_max":722,"ha":722,"o":"m 683 645 b 669 625 632 616 609 616 b 551 616 494 627 437 639 b 381 651 326 662 271 662 b 168 662 20 601 20 480 b 20 448 43 413 73 410 l 79 428 b 47 433 38 460 38 490 b 38 573 140 598 198 598 b 264 598 375 559 438 548 l 258 426 l 269 408 l 342 458 l 342 141 b 342 125 330 115 322 109 l 328 94 b 384 105 426 141 426 207 l 426 519 l 462 542 b 490 534 526 532 556 532 l 556 61 b 523 49 488 42 453 42 b 299 42 173 149 173 307 b 173 395 219 493 304 534 l 296 549 b 169 499 89 382 89 246 b 89 59 247 -22 408 -22 b 545 -22 630 37 696 142 l 684 154 b 656 116 620 85 574 67 l 574 532 b 633 548 674 584 696 638 z"},"P":{"x_min":0,"x_max":722,"ha":722,"o":"m 363 424 b 392 408 427 403 460 403 b 492 403 524 410 553 422 l 553 226 b 526 237 493 247 464 247 b 430 247 395 240 363 228 z m 276 515 l 276 538 b 276 606 216 662 144 662 b 58 662 10 596 6 521 l 24 521 b 38 560 48 590 110 590 b 152 590 192 556 192 506 l 192 373 b 122 372 72 349 72 289 b 72 272 74 253 79 238 l 96 238 b 100 276 121 301 157 301 l 192 301 l 192 104 b 115 85 52 33 31 -45 l 43 -49 b 74 9 126 39 192 39 l 192 -122 b 192 -156 178 -180 141 -205 l 148 -214 l 264 -145 l 362 -219 l 362 14 l 433 -22 l 449 -22 b 482 6 541 44 632 44 b 648 44 665 41 681 39 l 681 62 l 637 84 l 637 546 l 711 597 l 698 612 b 688 606 677 597 665 597 b 654 597 645 602 636 609 l 568 662 l 558 662 b 497 625 430 593 363 562 l 363 662 l 344 662 l 344 551 z m 344 -177 l 276 -129 l 276 493 l 344 527 z m 363 209 b 393 222 422 229 454 229 b 488 229 522 220 553 207 l 553 53 l 512 38 b 467 72 420 103 363 111 z m 553 442 b 521 427 487 421 451 421 b 422 421 390 430 363 442 l 363 538 l 477 597 l 553 544 z"},"|":{"x_min":0,"x_max":222,"ha":222,"o":"m 88 0 l 134 0 l 134 634 l 88 634 z"},"t":{"x_min":0,"x_max":278,"ha":278,"o":"m 235 322 l 262 387 l 253 394 b 242 382 226 374 211 374 l 170 374 l 170 559 l 94 512 l 94 374 l 46 374 l 19 309 l 31 304 b 39 319 51 322 63 322 l 94 322 l 94 81 l 19 32 l 30 19 b 42 29 57 36 69 36 b 89 36 125 7 148 -12 l 160 -12 l 263 66 l 251 78 l 214 52 l 170 82 l 170 322 z"},"M":{"x_min":0,"x_max":1000,"ha":1000,"o":"m 969 628 l 927 601 l 845 662 l 835 662 l 692 579 l 692 633 b 692 639 698 644 698 650 b 698 658 692 662 683 662 b 674 662 668 658 668 650 b 668 644 674 639 674 633 l 674 566 l 612 529 l 612 576 b 612 620 582 640 545 662 l 531 662 l 341 569 b 282 540 255 500 255 440 l 255 373 l 208 373 b 170 373 135 349 135 289 b 135 272 137 253 142 238 l 167 238 b 167 273 184 301 220 301 l 255 301 l 255 137 b 255 127 246 120 234 116 l 243 100 b 310 116 339 152 339 206 l 339 502 b 339 541 354 555 378 566 l 398 574 l 398 128 b 398 69 361 52 317 52 b 291 52 265 60 238 67 b 211 74 183 82 153 82 b 71 82 5 29 5 -68 b 5 -169 100 -218 201 -218 b 253 -218 303 -213 330 -199 l 317 -183 b 294 -193 255 -200 206 -200 b 128 -200 23 -163 23 -70 b 23 -22 43 8 94 8 b 123 8 150 -1 178 -8 b 207 -15 236 -22 270 -22 b 359 -22 416 24 416 112 l 416 301 l 528 301 l 528 86 l 424 13 l 437 0 b 451 11 476 24 490 24 b 534 24 565 -3 597 -22 l 613 -22 l 744 68 l 732 81 l 692 54 l 692 301 l 810 301 l 810 80 b 810 46 819 31 829 21 l 859 -13 b 865 -20 871 -22 878 -22 b 888 -22 903 -8 908 -4 l 984 51 l 976 65 l 945 43 b 919 62 894 80 894 106 l 894 556 l 982 615 z m 612 505 l 674 542 l 674 49 l 612 80 z m 416 581 l 458 600 b 498 580 528 565 528 534 l 528 373 l 416 373 z m 692 556 l 755 592 l 810 555 l 810 373 l 692 373 z"},"g":{"x_min":0,"x_max":444,"ha":444,"o":"m 293 56 b 290 -28 373 -25 373 -87 b 373 -110 356 -137 319 -154 l 265 -180 b 233 -152 197 -132 151 -132 b 117 -132 88 -138 64 -150 l 59 -146 z m 144 302 l 204 317 l 294 278 l 294 81 l 256 50 l 144 89 z m 29 27 b 38 34 49 41 60 41 b 74 41 95 30 111 22 l 185 -13 l 7 -170 l 22 -182 b 35 -174 52 -165 69 -165 b 122 -165 156 -199 188 -237 l 199 -237 l 345 -165 b 398 -137 429 -105 429 -50 b 429 -23 421 -2 410 14 b 398 31 384 43 370 50 l 370 287 l 425 324 l 413 339 b 404 333 394 323 376 323 b 358 323 306 366 292 374 l 274 374 b 236 333 126 318 45 316 b 45 306 55 288 68 284 l 68 76 l 14 36 z"},"j":{"x_min":0,"x_max":278,"ha":278,"o":"m 231 351 b 222 344 206 331 195 331 b 180 331 146 362 132 374 l 123 374 l 21 302 l 36 290 l 66 309 l 96 283 l 96 50 b 96 1 145 -5 145 -58 b 145 -90 129 -110 112 -130 b 96 -150 78 -169 78 -198 b 78 -207 80 -216 83 -227 l 101 -227 b 100 -224 100 -220 100 -217 b 100 -175 128 -152 157 -129 b 188 -104 219 -78 219 -27 b 219 3 200 39 172 52 l 172 281 l 244 336 z m 45 496 l 59 484 l 87 506 l 134 464 l 147 464 l 233 537 l 222 550 l 194 529 l 146 568 l 134 568 z"},"i":{"x_min":0,"x_max":278,"ha":278,"o":"m 17 306 l 32 294 l 62 313 l 92 287 l 92 48 b 92 22 119 0 134 -12 l 158 -12 l 254 58 l 244 71 l 210 49 b 194 55 168 75 168 101 l 168 285 l 240 340 l 227 355 b 218 348 202 335 191 335 b 176 335 142 366 128 378 l 119 378 z m 37 496 l 51 484 l 79 506 l 126 464 l 139 464 l 225 537 l 214 550 l 186 529 l 138 568 l 126 568 z"},"y":{"x_min":0,"x_max":444,"ha":444,"o":"m 420 345 b 413 339 400 327 387 327 b 371 327 348 368 330 374 l 310 374 l 141 259 l 141 314 b 141 353 124 365 105 374 l 86 374 l 5 319 l 16 306 l 39 319 l 65 289 l 65 101 b 65 38 102 8 175 -1 l 175 -3 b 127 -11 70 -31 70 -89 b 70 -132 107 -153 146 -153 b 181 -153 214 -144 245 -135 b 275 -127 304 -118 331 -118 b 352 -118 366 -131 366 -146 b 366 -206 237 -220 194 -220 b 168 -220 143 -216 118 -211 l 118 -227 b 140 -234 166 -238 191 -238 b 259 -238 394 -220 394 -126 b 394 -77 355 -56 311 -56 b 278 -56 245 -65 215 -73 b 184 -82 155 -91 130 -91 b 108 -91 98 -78 98 -67 b 98 29 372 -68 372 109 l 372 289 l 431 330 z m 296 288 l 296 73 b 296 31 273 14 218 14 b 163 14 141 31 141 73 l 141 236 l 256 314 z"},"@":{"x_min":0,"x_max":800,"ha":800,"o":"m 510 390 b 497 248 433 175 392 175 b 355 175 326 197 326 258 b 326 381 418 454 467 454 b 496 454 510 431 510 390 z m 525 443 b 512 467 501 496 454 496 b 321 496 258 326 258 258 b 258 158 320 133 354 133 b 412 133 457 187 469 204 l 471 204 b 470 192 493 134 559 134 b 677 134 744 269 744 370 b 744 537 601 662 418 662 b 222 662 56 518 56 305 b 56 172 169 -22 428 -22 b 505 -22 573 5 637 34 l 624 59 b 567 34 515 12 427 12 b 247 12 132 153 132 294 b 132 515 259 636 418 636 b 604 636 710 483 710 369 b 710 282 661 168 574 168 b 544 168 536 187 536 200 b 536 211 537 220 538 226 l 603 482 l 536 482 z"},".":{"x_min":0,"x_max":250,"ha":250,"o":"m 24 10 l 58 31 l 118 -12 l 139 -12 l 239 66 l 228 77 l 198 56 l 136 100 l 114 100 l 11 23 z"},"p":{"x_min":0,"x_max":444,"ha":444,"o":"m 25 -221 l 37 -237 l 155 -169 l 155 44 b 187 37 215 14 234 -12 l 247 -12 b 289 30 337 55 390 55 b 402 55 410 57 410 62 b 410 70 399 79 382 83 l 382 296 l 436 333 l 425 346 l 396 328 l 394 328 l 316 374 l 300 374 l 155 284 b 152 320 152 346 102 374 l 88 374 l 5 310 l 17 300 l 39 314 b 61 309 79 290 79 271 l 79 79 b 51 66 28 50 7 32 l 17 21 b 37 31 55 45 79 51 l 79 -188 z m 244 316 l 306 286 l 306 52 l 296 46 b 266 82 206 100 155 100 l 155 262 z"},"X":{"x_min":0,"x_max":722,"ha":722,"o":"m 367 297 l 539 14 b 552 -7 564 -22 582 -22 b 599 -22 615 -9 625 -2 l 707 56 l 696 71 b 681 59 662 50 646 50 b 624 50 601 79 584 107 l 466 304 l 600 304 l 664 406 l 652 414 l 631 382 l 417 382 l 505 562 b 526 546 547 543 573 543 b 635 543 677 589 703 640 l 690 653 b 671 640 648 631 625 631 b 597 631 569 642 550 662 l 534 662 l 406 407 l 321 555 b 279 628 243 662 182 662 b 112 662 52 611 41 543 l 55 543 b 84 572 108 582 141 582 b 191 582 216 558 240 518 l 321 382 l 170 382 l 108 262 l 128 262 l 150 304 l 351 304 l 234 75 b 216 89 190 102 150 102 b 75 102 17 52 7 -22 l 27 -22 b 39 -5 78 8 110 8 b 139 8 175 -3 197 -22 l 211 -22 z"},"*":{"x_min":0,"x_max":500,"ha":500,"o":"m 206 640 l 228 502 l 101 559 l 75 487 l 223 466 l 119 359 l 179 317 l 249 446 l 317 316 l 378 362 l 274 466 l 418 490 l 394 561 l 265 501 l 284 640 z"},"Y":{"x_min":0,"x_max":722,"ha":722,"o":"m 32 514 b 32 556 75 578 124 578 b 174 578 208 552 208 501 l 208 373 l 161 373 b 123 373 88 349 88 289 b 88 272 90 253 95 238 l 120 238 b 120 273 137 301 173 301 l 208 301 l 208 114 b 208 32 284 -6 361 -14 l 361 -16 b 298 -32 224 -46 224 -133 b 224 -190 275 -212 324 -212 b 370 -212 421 -189 469 -167 b 517 -145 561 -123 589 -123 b 617 -123 646 -130 646 -159 b 646 -197 579 -200 546 -200 l 559 -218 b 606 -218 680 -211 680 -139 b 680 -84 626 -51 576 -51 b 526 -51 476 -74 428 -97 b 381 -120 337 -140 300 -140 b 278 -140 252 -138 252 -112 b 252 -5 642 -75 642 159 l 642 551 l 707 593 l 696 606 b 690 603 681 598 668 598 b 653 598 584 662 566 662 b 550 662 529 647 514 639 l 375 564 l 375 662 l 357 662 l 357 552 l 292 519 b 292 600 244 662 160 662 b 74 662 13 601 14 514 z m 356 530 l 356 7 b 317 17 292 48 292 85 l 292 498 z m 374 391 b 397 382 431 375 459 375 b 492 375 531 381 558 392 l 558 207 b 531 214 504 222 464 222 b 441 222 408 219 374 206 z m 374 185 b 404 198 437 204 469 204 b 500 204 529 196 558 188 l 558 100 b 558 23 449 4 374 4 z m 558 551 l 558 412 b 526 401 497 393 467 393 b 436 393 403 401 374 410 l 374 542 l 478 597 z"},"c":{"x_min":0,"x_max":333,"ha":333,"o":"m 63 80 l 8 40 l 19 27 b 29 36 41 45 54 45 b 72 45 128 9 150 -12 l 171 -12 l 316 80 l 304 93 l 229 47 b 201 65 170 78 139 90 l 139 311 l 163 322 b 178 291 202 270 235 270 b 268 270 303 289 322 312 l 322 327 b 270 330 250 349 229 374 l 215 374 b 173 338 89 311 42 311 l 42 293 l 63 282 z"},"!":{"x_min":0,"x_max":278,"ha":278,"o":"m 37 524 l 71 547 l 92 535 l 136 204 l 148 204 l 192 532 b 213 535 249 549 250 570 b 250 576 247 580 231 580 b 204 580 194 582 177 595 l 149 617 l 136 617 l 23 534 z m 40 8 l 74 29 l 134 -14 l 155 -14 l 255 64 l 244 75 l 214 54 l 152 98 l 130 98 l 27 21 z"},"/":{"x_min":0,"x_max":278,"ha":278,"o":"m -6 -22 l 41 -22 l 284 662 l 237 662 z"},"[":{"x_min":0,"x_max":333,"ha":333,"o":"m 63 662 l 63 -168 l 294 -168 l 294 -138 l 139 -138 l 139 632 l 292 632 l 292 662 z"},"6":{"x_min":0,"x_max":500,"ha":500,"o":"m 43 36 b 52 43 60 50 72 50 b 94 50 183 6 203 -12 l 216 -12 b 259 21 348 57 420 57 b 430 57 439 61 439 69 b 439 76 427 85 419 87 l 419 273 l 469 307 l 459 319 b 451 312 437 304 426 304 b 416 304 390 320 363 334 l 318 358 l 165 275 l 165 470 l 221 492 b 244 472 276 454 326 454 b 375 454 398 470 435 500 l 433 515 b 418 510 404 506 388 506 b 346 506 305 538 289 552 l 272 552 b 227 513 116 464 84 464 b 72 464 64 460 64 452 b 64 444 78 441 89 440 l 89 90 l 28 49 z m 343 65 l 280 43 l 165 95 l 165 252 l 247 296 l 343 260 z"},"r":{"x_min":0,"x_max":389,"ha":389,"o":"m 183 86 l 183 257 l 227 300 b 245 278 262 268 291 268 b 322 268 366 304 366 316 b 366 328 358 332 340 332 b 318 332 297 357 288 374 l 274 374 l 183 282 b 183 296 181 331 161 347 l 127 374 l 114 374 l 25 309 l 41 293 b 49 300 57 310 67 310 b 75 310 82 302 86 297 l 107 276 l 107 86 l 29 28 l 43 15 b 58 27 71 45 91 45 b 112 45 143 16 170 -12 l 189 -12 l 300 64 l 286 76 l 243 49 z"},"2":{"x_min":0,"x_max":500,"ha":500,"o":"m 56 -4 b 70 33 109 50 147 50 b 229 50 290 6 320 -12 l 336 -12 l 434 87 l 421 98 l 381 61 b 337 87 279 104 227 104 b 160 104 114 85 69 38 l 67 38 b 82 204 412 214 412 440 b 422 443 431 446 431 454 b 431 462 421 464 404 464 b 352 464 258 512 214 552 l 204 552 b 170 502 126 456 59 439 b 55 438 53 434 53 431 b 53 427 55 425 58 424 b 73 420 91 419 107 419 b 171 419 229 440 272 488 b 289 479 305 470 324 463 b 324 280 38 180 38 -4 z"},"{":{"x_min":0,"x_max":333,"ha":333,"o":"m 126 -57 b 126 -176 177 -196 253 -196 l 253 -184 b 218 -169 202 -131 202 -62 l 202 105 b 202 175 191 215 106 232 l 106 234 b 191 251 202 291 202 361 l 202 528 b 202 597 218 635 253 650 l 253 662 b 177 662 126 642 126 523 l 126 346 b 126 282 114 251 57 233 b 114 215 126 184 126 120 z"},"9":{"x_min":0,"x_max":500,"ha":500,"o":"m 454 504 b 445 497 437 490 425 490 b 403 490 314 534 294 552 l 281 552 b 238 519 149 483 77 483 b 67 483 58 479 58 471 b 58 464 70 455 78 453 l 78 267 l 28 233 l 38 221 b 46 228 60 236 71 236 b 81 236 107 220 134 206 l 179 182 l 332 265 l 332 70 l 276 48 b 253 68 221 86 171 86 b 122 86 99 70 62 40 l 64 25 b 79 30 93 34 109 34 b 151 34 192 2 208 -12 l 225 -12 b 270 27 381 76 413 76 b 425 76 433 80 433 88 b 433 96 419 99 408 100 l 408 450 l 469 491 z m 154 475 l 217 497 l 332 445 l 332 288 l 250 244 l 154 280 z"}," ":{"x_min":0,"x_max":250,"ha":250,"o":""},"I":{"x_min":0,"x_max":722,"ha":722,"o":"m 520 574 b 489 562 403 514 403 460 l 403 369 l 362 369 b 309 369 295 328 295 252 l 313 252 b 322 295 337 301 383 301 l 403 301 l 403 130 b 403 112 391 96 375 88 l 375 75 b 450 88 487 112 487 194 l 487 495 b 487 533 512 550 526 559 z m 229 -200 b 128 -194 30 -137 30 -32 b 30 27 68 90 135 90 b 257 90 246 -22 430 -22 b 496 -22 638 2 638 160 l 638 586 b 638 614 650 640 661 644 l 661 662 b 636 660 554 620 554 527 l 554 124 b 554 32 532 -4 468 -4 b 355 -4 338 152 192 152 b 89 152 12 59 12 -40 b 12 -163 144 -218 241 -218 z m 524 662 b 501 641 471 625 439 625 b 414 625 389 635 362 645 b 335 655 306 662 272 662 b 211 662 117 617 117 547 b 117 500 142 470 190 466 l 190 484 b 155 488 135 513 135 543 b 135 583 168 598 203 598 b 232 598 262 587 292 575 b 323 563 354 553 385 553 b 446 553 501 609 536 653 z"},"H":{"x_min":0,"x_max":778,"ha":778,"o":"m 588 166 b 559 171 519 177 480 177 b 448 177 403 169 377 164 l 377 301 l 588 301 z m 377 488 b 403 483 448 473 480 473 b 519 473 559 481 588 486 l 588 373 l 377 373 z m 359 46 b 313 63 267 83 218 83 b 132 83 5 37 5 -68 b 5 -191 125 -218 227 -218 l 227 -200 b 150 -200 23 -177 23 -81 b 23 -18 75 11 133 11 b 208 11 253 -12 279 -22 l 302 -22 l 428 52 l 421 71 l 377 44 l 377 144 b 401 149 446 159 478 159 b 517 159 557 151 588 146 l 588 69 l 503 10 l 516 -4 b 529 6 543 22 560 22 b 586 22 618 -12 632 -22 l 657 -22 b 668 -11 681 -3 692 2 l 770 44 l 758 57 l 727 41 l 672 74 l 672 553 l 759 610 l 752 627 b 739 618 720 609 704 609 b 690 609 679 623 666 632 l 623 662 l 498 590 l 502 572 l 539 593 l 588 563 l 588 502 b 557 497 517 491 478 491 b 446 491 401 499 377 504 l 377 635 b 377 642 382 648 386 650 l 376 662 b 355 641 339 631 309 631 b 282 631 258 639 233 647 b 209 654 184 662 153 662 b 86 662 6 609 6 537 b 6 507 29 479 56 468 l 64 481 b 40 500 24 508 24 542 b 24 572 48 594 86 594 b 107 594 129 586 153 578 b 177 570 202 563 230 563 b 275 563 326 586 359 620 z m 325 558 b 283 543 215 509 215 437 l 215 373 l 168 373 b 130 373 95 349 95 289 b 95 272 97 253 102 238 l 127 238 b 127 273 144 301 180 301 l 215 301 l 215 163 b 215 139 198 124 185 119 l 185 105 b 253 123 299 140 299 178 l 299 497 b 299 523 312 533 328 540 z"},"4":{"x_min":0,"x_max":500,"ha":500,"o":"m 23 183 l 269 183 l 269 79 l 184 17 l 198 6 b 212 19 230 34 246 34 b 268 34 292 3 304 -12 l 319 -12 l 431 66 l 420 84 l 376 58 l 345 83 l 345 183 l 456 183 l 456 201 l 345 201 l 345 463 l 404 515 l 393 527 l 367 506 b 350 512 328 530 302 552 l 285 552 l 23 241 z m 243 474 l 269 457 l 269 201 l 99 201 l 99 300 z"},"~":{"x_min":0,"x_max":600,"ha":600,"o":"m 495 247 b 472 212 447 175 407 175 b 382 175 347 192 309 209 b 272 226 231 243 194 243 b 127 243 91 199 69 157 l 105 115 b 121 150 145 187 189 187 b 235 187 269 170 302 153 b 335 136 366 119 406 119 b 468 119 501 163 531 205 z"},"D":{"x_min":0,"x_max":778,"ha":778,"o":"m 382 93 b 357 96 332 102 309 102 b 189 102 17 59 17 -88 b 17 -188 149 -218 227 -218 b 266 -218 313 -212 354 -203 l 344 -185 b 302 -191 272 -200 226 -200 b 149 -200 35 -174 35 -80 b 35 10 136 44 211 44 b 308 44 390 1 420 -22 l 445 -22 b 486 6 546 63 662 63 b 681 63 700 61 719 60 l 719 79 b 710 81 703 86 700 93 l 700 521 b 700 641 589 662 491 662 b 452 662 401 655 347 646 b 293 637 237 629 188 629 b 141 629 109 641 99 662 l 76 662 b 100 581 181 563 255 563 b 299 563 337 571 382 576 z m 400 413 b 434 397 471 386 509 386 b 546 386 582 393 616 407 l 616 238 b 583 258 546 266 508 266 b 471 266 435 255 400 243 z m 616 81 b 578 76 542 63 508 45 b 475 67 438 79 400 88 l 400 225 b 437 237 473 248 512 248 b 549 248 584 235 616 218 z m 400 580 b 433 580 466 590 499 590 b 586 590 616 566 616 496 l 616 427 b 587 411 553 404 520 404 b 478 404 437 414 400 433 z m 340 545 b 298 530 230 504 230 424 l 231 376 b 170 369 138 366 138 298 b 138 282 140 268 142 255 l 155 255 b 161 290 170 301 208 301 l 230 301 l 230 174 b 230 150 213 135 200 130 l 200 116 b 278 124 314 166 314 221 l 314 484 b 314 510 327 520 345 532 z"},"^":{"x_min":0,"x_max":600,"ha":600,"o":"m 153 175 l 300 470 l 447 175 l 509 175 l 326 540 l 274 540 l 91 175 z"},"0":{"x_min":0,"x_max":500,"ha":500,"o":"m 34 29 b 41 35 65 50 74 50 b 104 50 163 8 197 -12 l 225 -12 b 254 16 366 56 407 56 b 422 56 432 58 432 65 b 432 75 423 78 412 80 l 412 461 l 465 494 l 460 513 l 410 483 l 293 552 l 281 552 b 252 522 174 475 63 475 l 63 463 l 86 444 l 86 83 l 28 46 z m 162 88 l 162 472 l 222 492 l 336 444 l 336 62 l 277 41 z"},"F":{"x_min":0,"x_max":833,"ha":833,"o":"m 587 581 b 601 570 628 553 646 550 l 646 368 l 564 368 l 564 569 z m 563 296 l 619 296 b 629 296 637 305 646 314 l 646 -182 b 636 -182 624 -187 624 -202 b 624 -214 631 -220 643 -220 b 656 -220 664 -213 664 -192 l 664 329 l 688 352 l 688 368 l 664 368 l 664 548 b 737 555 783 603 822 652 l 811 662 b 788 643 759 626 725 626 b 702 626 681 641 670 662 l 657 662 b 618 614 539 573 479 545 l 479 67 b 479 37 468 14 445 14 b 423 14 390 30 348 50 b 306 70 254 89 192 89 b 101 89 17 23 17 -72 b 17 -182 132 -218 222 -218 b 272 -218 322 -210 370 -200 l 365 -183 b 319 -192 270 -200 220 -200 b 150 -200 35 -168 35 -82 b 35 -13 79 21 145 21 b 174 21 207 11 244 0 b 280 -11 320 -22 361 -22 b 454 -22 563 28 563 106 z m 181 475 b 159 490 147 516 147 543 b 147 577 181 598 212 598 b 246 598 271 589 297 582 b 323 575 349 564 386 564 b 442 564 509 605 543 650 l 535 662 b 507 642 486 632 451 632 b 426 632 406 640 384 647 b 361 654 336 662 293 662 b 214 662 129 625 129 548 b 129 513 142 485 170 464 z m 410 444 b 410 486 428 512 440 514 l 436 531 b 387 513 326 468 326 430 l 326 374 b 276 365 219 345 219 284 b 219 274 220 267 222 259 l 238 259 b 243 286 256 296 284 296 l 326 296 l 326 194 b 326 132 306 129 293 126 l 296 102 b 358 117 410 148 410 203 z"},"`":{"x_min":0,"x_max":278,"ha":278,"o":"m 42 539 l 184 422 l 200 422 l 152 557 l 42 557 z"},"k":{"x_min":0,"x_max":444,"ha":444,"o":"m 69 595 b 74 575 81 545 81 514 l 81 76 l 20 35 l 34 22 b 44 31 55 41 66 41 b 77 42 103 1 126 -12 l 141 -12 l 237 57 l 226 68 l 201 54 l 157 86 l 157 134 l 230 174 b 266 135 295 1 327 -12 l 343 -12 l 429 47 l 418 59 b 411 54 397 44 388 44 b 380 44 372 59 365 73 b 350 105 325 163 295 209 l 394 266 l 394 271 l 304 374 l 288 374 l 157 293 l 157 492 b 157 542 179 592 200 624 l 191 633 b 162 605 129 579 108 544 b 104 564 92 580 81 597 z m 249 326 l 318 245 l 157 155 l 157 269 z"},"u":{"x_min":0,"x_max":500,"ha":500,"o":"m 18 310 l 31 294 l 62 316 l 96 281 l 96 78 l 18 23 l 28 10 b 47 26 64 36 77 36 b 98 36 128 9 154 -12 l 170 -12 l 324 92 b 324 53 327 39 338 27 l 374 -12 l 393 -12 l 479 52 l 469 63 l 447 52 l 404 94 l 404 283 l 475 333 l 465 348 b 453 340 432 323 418 323 b 399 323 371 352 353 373 l 338 373 l 251 309 l 258 292 l 284 308 l 323 276 l 323 117 l 224 50 l 172 83 l 172 292 b 172 319 168 330 158 341 l 127 374 l 111 374 z"},"]":{"x_min":0,"x_max":333,"ha":333,"o":"m 270 -168 l 270 662 l 39 662 l 39 632 l 194 632 l 194 -138 l 41 -138 l 41 -168 z"},"U":{"x_min":0,"x_max":778,"ha":778,"o":"m 216 95 b 116 84 19 11 19 -94 b 19 -181 89 -218 166 -218 b 187 -218 210 -215 230 -210 l 230 -193 b 211 -197 189 -200 170 -200 b 102 -200 37 -174 37 -97 b 37 -11 109 23 185 23 b 246 23 300 -9 318 -22 l 348 -22 l 580 120 l 580 59 b 580 25 610 -10 631 -22 l 650 -22 l 756 49 l 745 64 l 712 43 b 693 51 676 61 664 79 l 664 558 l 752 616 l 741 630 b 729 620 715 607 698 607 b 670 607 635 640 619 662 l 606 662 l 485 575 l 494 560 l 528 582 b 540 571 560 558 580 551 l 580 454 b 551 445 525 439 498 439 b 460 439 421 443 387 460 l 387 662 l 369 662 l 369 62 b 346 77 325 86 300 93 l 300 530 b 300 612 241 662 163 662 b 78 662 25 584 20 505 l 36 505 b 51 545 86 580 131 580 b 175 580 216 555 216 501 l 216 368 b 173 365 101 359 101 297 b 101 287 108 260 111 252 l 130 252 b 138 278 148 294 182 294 l 216 294 z m 411 39 l 387 54 l 387 241 b 418 254 446 260 480 260 b 514 260 546 253 580 238 l 580 141 z m 387 442 b 417 429 451 421 484 421 b 515 421 547 426 580 435 l 580 259 b 550 268 522 278 494 278 b 458 278 420 273 387 257 z"},"o":{"x_min":0,"x_max":444,"ha":444,"o":"m 422 344 b 411 333 390 320 377 320 b 359 320 309 354 288 374 l 270 374 b 219 334 107 311 47 311 b 43 311 42 308 42 306 b 42 299 60 285 69 282 l 69 74 l 9 34 l 24 22 b 37 29 45 41 61 41 b 77 41 120 10 150 -12 l 171 -12 b 195 12 273 51 374 51 b 388 51 398 54 398 60 b 398 69 383 78 372 83 l 372 287 l 434 330 z m 296 271 l 296 61 b 279 58 255 51 237 43 l 145 90 l 145 301 l 202 318 z"},"N":{"x_min":0,"x_max":833,"ha":833,"o":"m 252 77 b 149 77 15 11 15 -105 b 15 -191 76 -218 152 -218 b 177 -218 204 -213 233 -206 l 226 -189 b 201 -194 175 -200 151 -200 b 83 -200 33 -176 33 -102 b 33 -27 110 13 177 13 b 235 13 277 -11 290 -22 l 322 -22 l 475 83 l 462 96 l 383 42 b 349 63 311 77 270 77 l 270 218 b 302 226 335 229 367 229 b 400 229 454 222 502 201 b 546 128 602 24 675 -37 l 692 -37 l 692 560 b 752 560 794 593 818 645 l 806 654 b 785 641 770 632 749 632 b 729 632 704 640 696 662 l 678 662 l 523 547 l 535 532 l 604 581 b 626 569 649 560 674 560 l 674 438 b 640 418 599 414 560 414 b 533 414 482 424 459 439 b 412 506 320 662 193 662 b 122 662 56 612 32 546 l 45 541 b 75 574 99 590 144 590 b 182 590 224 573 252 551 l 252 373 l 211 373 b 154 373 111 328 111 245 l 129 245 b 132 280 154 288 185 291 b 206 293 231 288 252 278 z m 270 538 b 358 446 421 336 485 228 b 450 240 415 247 378 247 b 342 247 306 245 270 238 z m 674 90 l 672 90 b 602 196 535 305 468 412 l 470 414 b 504 399 538 396 577 396 b 610 396 644 404 674 418 z"},"+":{"x_min":0,"x_max":600,"ha":600,"o":"m 277 204 l 119 204 l 119 158 l 277 158 l 277 0 l 323 0 l 323 158 l 481 158 l 481 204 l 323 204 l 323 362 l 277 362 z"},"G":{"x_min":0,"x_max":722,"ha":722,"o":"m 280 646 b 136 584 12 461 12 295 b 12 107 203 -22 387 -22 b 510 -22 698 51 698 211 b 698 322 595 397 491 397 b 476 397 461 396 448 392 l 446 394 l 689 652 l 679 662 b 646 641 608 624 568 624 b 541 624 496 633 483 662 l 465 662 l 188 475 l 192 456 l 259 498 l 259 127 b 259 102 251 87 229 74 l 234 58 b 300 80 343 126 343 166 l 343 281 l 397 343 l 397 -4 b 197 -4 118 104 118 291 b 118 421 149 568 280 627 z m 415 257 b 446 247 476 242 507 242 b 537 242 570 246 598 258 b 601 243 602 228 602 212 b 602 183 593 154 584 127 b 559 134 531 142 505 142 b 475 142 445 139 415 132 z m 415 363 b 435 374 458 379 478 379 b 546 379 581 333 596 277 b 578 268 539 260 519 260 b 485 260 448 265 415 280 z m 415 109 b 441 120 466 124 492 124 b 522 124 550 119 578 108 b 553 34 493 -4 415 -4 z m 397 481 l 397 374 l 345 314 l 343 314 l 343 558 l 394 591 b 421 572 449 562 482 562 b 532 562 578 578 607 594 l 609 592 l 415 391 l 415 481 z"},"q":{"x_min":0,"x_max":444,"ha":444,"o":"m 420 343 b 409 333 391 319 381 319 b 366 319 314 358 294 374 l 271 374 b 227 340 126 315 35 317 b 35 302 45 296 65 285 l 65 86 l 1 39 l 13 25 b 27 37 38 44 51 44 b 83 44 131 -12 154 -12 b 162 -12 171 -6 186 2 l 292 58 l 292 -187 l 229 -221 l 235 -237 l 368 -167 l 368 282 l 432 329 z m 141 303 b 162 310 183 314 204 322 b 229 309 261 289 292 278 l 292 82 l 227 45 l 141 88 z"},"d":{"x_min":0,"x_max":444,"ha":444,"o":"m 435 328 l 422 341 b 413 331 394 320 383 320 b 374 320 353 338 342 349 l 84 587 l 32 534 l 218 364 b 167 327 103 318 42 318 l 42 300 l 65 287 l 65 83 l 0 35 l 15 24 b 24 33 41 42 53 42 b 98 42 122 -3 138 -12 l 158 -12 b 199 17 290 53 364 53 b 374 53 386 50 396 50 l 396 68 l 373 83 l 373 280 z m 141 308 b 173 314 203 330 230 348 l 297 289 l 297 66 l 233 44 l 141 90 z"},"1":{"x_min":0,"x_max":500,"ha":500,"o":"m 184 492 b 202 486 225 468 225 436 l 225 87 l 97 2 l 108 -12 b 127 -1 170 37 190 37 b 221 37 257 1 280 -12 l 299 -12 l 443 86 l 432 98 l 361 53 l 301 85 l 301 439 b 301 524 273 541 249 552 l 238 552 l 102 456 l 106 439 z"},"5":{"x_min":0,"x_max":500,"ha":500,"o":"m 277 45 b 252 72 202 92 151 92 b 92 92 40 71 40 58 b 40 53 44 50 58 50 b 151 50 177 23 206 -12 l 221 -12 b 255 22 340 58 391 58 b 399 58 407 62 407 68 b 407 75 395 86 384 90 l 384 257 b 406 271 433 292 433 302 b 433 306 430 307 427 307 b 423 307 403 293 394 293 b 383 293 351 308 321 325 l 258 361 l 100 292 l 123 462 l 306 462 b 362 462 391 539 391 546 b 391 549 389 552 387 552 b 384 552 379 547 373 541 b 368 536 362 530 357 530 l 115 530 l 80 279 l 89 269 l 182 308 l 308 252 l 308 61 z"}}}
